<svg width="931" height="108" viewBox="0 0 931 108" fill="none" xmlns="http://www.w3.org/2000/svg">
<path d="M865.312 106L884.896 2.32031H911.009L930.337 106H909.216L905.76 84.1123H890.529L886.945 106H865.312ZM892.577 70.4163H903.585L898.081 29.9683L892.577 70.4163Z" fill="white"/>
<path d="M797.68 106V2.32031H820.592V44.6883L838 2.32031H860.4L841.2 49.1683L861.296 106H838L823.024 60.1763L820.592 64.2723V106H797.68Z" fill="white"/>
<path d="M722.188 106L741.771 2.32031H767.884L787.212 106H766.091L762.635 84.1123H747.404L743.82 106H722.188ZM749.452 70.4163H760.46L754.956 29.9683L749.452 70.4163Z" fill="white"/>
<path d="M685.274 106V19.3443H669.658V2.32031H723.802V19.3443H708.314V106H685.274Z" fill="white"/>
<path d="M637.559 106V2.32031H660.471V106H637.559Z" fill="white"/>
<path d="M559.689 106V2.32031H582.601V44.3043H598.729V2.32031H621.641V106H598.729V60.6883H582.601V106H559.689Z" fill="white"/>
<path d="M521.076 107.536C514.591 107.536 509.172 106.384 504.82 104.08C500.468 101.776 497.183 98.2348 494.964 93.4561C492.745 88.5921 491.508 82.3201 491.252 74.6401L510.836 71.6961C510.921 76.1334 511.305 79.7174 511.988 82.4481C512.756 85.1788 513.78 87.1414 515.06 88.3361C516.425 89.5308 518.047 90.1281 519.924 90.1281C522.313 90.1281 523.849 89.3174 524.532 87.6961C525.3 86.0748 525.684 84.3681 525.684 82.5761C525.684 78.3095 524.66 74.7254 522.612 71.8241C520.564 68.8374 517.791 65.8508 514.292 62.8641L505.332 55.0561C501.407 51.7281 498.079 47.9734 495.348 43.7921C492.703 39.5254 491.38 34.2774 491.38 28.0481C491.38 19.2588 493.983 12.5601 499.188 7.95211C504.393 3.25878 511.476 0.912109 520.436 0.912109C525.983 0.912109 530.42 1.85078 533.748 3.72811C537.161 5.60545 539.721 8.08011 541.428 11.1521C543.22 14.1388 544.415 17.3388 545.012 20.7521C545.695 24.0801 546.079 27.2801 546.164 30.3521L526.452 32.7841C526.367 29.7121 526.153 27.0668 525.812 24.8481C525.556 22.5441 524.959 20.7948 524.02 19.6001C523.081 18.3201 521.631 17.6801 519.668 17.6801C517.535 17.6801 515.956 18.5761 514.932 20.3681C513.993 22.1601 513.524 23.9521 513.524 25.7441C513.524 29.5841 514.42 32.7414 516.212 35.2161C518.089 37.6054 520.521 40.1228 523.508 42.7681L532.084 50.3201C536.607 54.1601 540.404 58.5121 543.476 63.3761C546.633 68.2401 548.212 74.2561 548.212 81.4241C548.212 86.2881 547.103 90.7254 544.884 94.7361C542.665 98.6614 539.508 101.776 535.412 104.08C531.401 106.384 526.623 107.536 521.076 107.536Z" fill="white"/>
<path d="M448.25 107.536C440.485 107.536 434.341 106.171 429.818 103.44C425.296 100.709 422.053 96.7841 420.09 91.6641C418.128 86.5441 417.146 80.4428 417.146 73.3601V34.8321C417.146 27.6641 418.128 21.5628 420.09 16.5281C422.053 11.4934 425.296 7.65345 429.818 5.00811C434.341 2.27744 440.485 0.912109 448.25 0.912109C456.101 0.912109 462.288 2.27744 466.81 5.00811C471.418 7.65345 474.704 11.4934 476.666 16.5281C478.629 21.5628 479.61 27.6641 479.61 34.8321V73.3601C479.61 80.4428 478.629 86.5441 476.666 91.6641C474.704 96.7841 471.418 100.709 466.81 103.44C462.288 106.171 456.101 107.536 448.25 107.536ZM448.25 91.2801C450.64 91.2801 452.389 90.6828 453.498 89.4881C454.608 88.2935 455.333 86.7575 455.674 84.8801C456.016 83.0028 456.186 81.0828 456.186 79.1201V29.2001C456.186 27.1521 456.016 25.2321 455.674 23.4401C455.333 21.5628 454.608 20.0268 453.498 18.8321C452.389 17.6374 450.64 17.0401 448.25 17.0401C446.032 17.0401 444.368 17.6374 443.258 18.8321C442.149 20.0268 441.424 21.5628 441.082 23.4401C440.741 25.2321 440.57 27.1521 440.57 29.2001V79.1201C440.57 81.0828 440.698 83.0028 440.954 84.8801C441.296 86.7575 441.978 88.2935 443.002 89.4881C444.112 90.6828 445.861 91.2801 448.25 91.2801Z" fill="white"/>
<path d="M370.61 106V63.6323L350.898 2.32031H372.53L382.386 35.0883L391.218 2.32031H411.954L392.626 63.6323V106H370.61Z" fill="white"/>
<path d="M286.434 106V2.32031H309.346V106H286.434Z" fill="white"/>
<path d="M210.812 106L230.396 2.32031H256.508L275.837 106H254.717L251.26 84.1123H236.029L232.445 106H210.812ZM238.076 70.4163H249.084L243.58 29.9683L238.076 70.4163Z" fill="white"/>
<path d="M168.312 107.536C161.144 107.536 155.47 106.043 151.288 103.056C147.192 100.069 144.248 95.8881 142.456 90.5121C140.75 85.0508 139.896 78.7788 139.896 71.6961V36.8801C139.896 29.5414 140.835 23.1841 142.712 17.8081C144.59 12.4321 147.79 8.29344 152.312 5.39211C156.92 2.40544 163.15 0.912109 171 0.912109C178.68 0.912109 184.696 2.19211 189.048 4.75211C193.486 7.31211 196.643 10.8534 198.52 15.3761C200.398 19.8988 201.336 25.1894 201.336 31.2481V37.9041H178.936V29.4561C178.936 27.2374 178.766 25.1894 178.424 23.3121C178.168 21.4348 177.486 19.9414 176.376 18.8321C175.352 17.6374 173.646 17.0401 171.256 17.0401C168.782 17.0401 166.99 17.7228 165.88 19.0881C164.771 20.3681 164.046 21.9894 163.704 23.9521C163.448 25.9148 163.32 27.9628 163.32 30.0961V78.0961C163.32 80.4001 163.534 82.5761 163.96 84.6241C164.472 86.5868 165.326 88.2081 166.52 89.4881C167.8 90.6828 169.592 91.2801 171.896 91.2801C174.286 91.2801 176.12 90.6401 177.4 89.3601C178.68 88.0801 179.576 86.4161 180.088 84.3681C180.6 82.3201 180.856 80.1441 180.856 77.8401V65.6801H171.512V52.2401H201.464V106H186.36L185.08 97.4241C183.715 100.325 181.71 102.757 179.064 104.72C176.419 106.597 172.835 107.536 168.312 107.536Z" fill="white"/>
<path d="M67.4375 106L87.0215 2.32031H113.133L132.462 106H111.341L107.885 84.1123H92.6535L89.0695 106H67.4375ZM94.7015 70.4163H105.71L100.205 29.9683L94.7015 70.4163Z" fill="white"/>
<path d="M0.679688 106V2.32031H16.8077L38.0557 52.2403V2.32031H56.9997V106H41.5117L20.2637 52.2403V106H0.679688Z" fill="white"/>
</svg>
